<svg xmlns="http://www.w3.org/2000/svg" width="512" height="512" viewBox="0 0 169.063 169.063" enable-background="new 0 0 169.063 169.063"><g fill="#333"><path d="M122.4 0H46.66C20.93 0 0 20.93 0 46.66v75.75c0 25.73 20.93 46.66 46.65 46.66h75.76c25.73 0 46.66-20.93 46.66-46.65V46.66C169.06 20.94 148.13 0 122.4 0zm31.66 122.4c0 17.46-14.2 31.66-31.65 31.66H46.66C29.2 154.06 15 139.86 15 122.4V46.66C15 29.2 29.2 15 46.65 15h75.76c17.46 0 31.66 14.2 31.66 31.66v75.75zM84.53 40.97c-24.02 0-43.56 19.54-43.56 43.56 0 24.02 19.54 43.56 43.56 43.56s43.56-19.55 43.56-43.57-19.55-43.56-43.57-43.56zm0 72.12c-15.75 0-28.56-12.82-28.56-28.57s12.8-28.56 28.56-28.56 28.56 12.8 28.56 28.56c0 15.75-12.82 28.56-28.57 28.56zM129.92 28.25c-2.9 0-5.73 1.17-7.77 3.22-2.05 2.04-3.23 4.88-3.23 7.78 0 2.9 1.18 5.73 3.23 7.78 2.04 2.04 4.88 3.22 7.77 3.22 2.9 0 5.73-1.18 7.78-3.22 2.05-2.05 3.22-4.9 3.22-7.78 0-2.9-1.17-5.74-3.22-7.78-2.04-2.05-4.88-3.22-7.78-3.22z"/></g></svg>