<svg xmlns="http://www.w3.org/2000/svg" width="660" height="139"><g fill="none"><g fill="#373737"><path d="M493.32 138.93V0h166.1v139l-166.1-.07zm99.94-115.2h-20.2v56.1c0 7.5-1.5 12.82-4.6 15.96-3.08 3.15-7.07 4.7-11.94 4.7-2.4 0-4.68-.36-6.67-1.06-2.06-.7-3.78-1.9-5.15-3.57-1.44-1.7-2.54-3.8-3.37-6.45-.82-2.66-1.23-5.8-1.23-9.6V23.75h-20.2v57.84c0 5.46.7 10.43 2.13 14.98 1.45 4.5 3.64 8.4 6.6 11.7 2.95 3.3 6.73 5.8 11.33 7.63 4.6 1.8 10.03 2.72 16.28 2.72 6.4 0 11.88-.9 16.55-2.66 4.67-1.82 8.5-4.34 11.53-7.56 3.03-3.3 5.3-7.14 6.74-11.76 1.44-4.56 2.2-9.6 2.2-15.06V23.74zm39.64 0h-20.2v93h20.2v-93zM426 136.07c-4.32 0-8.37-.35-12.22-1.05-3.85-.7-7.14-1.53-9.96-2.5l2.27-10.8c2.46.98 5.48 1.82 9.05 2.6 3.58.77 7.3 1.12 11.13 1.12 7.28 0 12.57-1.47 15.8-4.42 3.23-2.94 4.8-7.56 4.8-13.93v-2.94c-1.02.7-3.08 1.6-6.1 2.73-3.03 1.12-6.6 1.68-10.65 1.68-4.12 0-8.04-.63-11.68-1.96-3.64-1.33-6.87-3.36-9.55-6.16-2.74-2.8-4.87-6.3-6.45-10.44-1.58-4.2-2.4-9.1-2.4-14.9 0-5.05.75-9.67 2.26-13.88 1.52-4.2 3.65-7.84 6.53-10.92 2.9-3.08 6.4-5.46 10.5-7.2 4.14-1.76 8.8-2.6 14.03-2.6 5.7 0 10.7.42 14.97 1.26 4.26.84 7.83 1.6 10.78 2.3v61.7c0 10.64-2.73 18.35-8.16 23.18-5.56 4.76-13.8 7.14-24.93 7.14zm20.75-83.26c-1.24-.35-2.88-.7-4.94-.98-2.06-.28-4.87-.5-8.37-.5-6.6 0-11.68 2.18-15.25 6.52-3.58 4.34-5.36 10.1-5.36 17.3 0 4 .48 7.42 1.5 10.22 1.04 2.87 2.4 5.18 4.13 7.07 1.72 1.9 3.7 3.23 5.9 4.14 2.27.9 4.54 1.33 6.95 1.33 3.22 0 6.25-.5 9-1.4 2.74-.9 4.87-2.03 6.45-3.3V52.8zM370.7 74.86c0-4.27-.26-7.9-.88-10.93-.55-3-1.5-5.46-2.82-7.28-1.3-1.9-3.1-3.22-5.3-4.06-2.18-.85-4.93-1.27-8.16-1.27-1.3 0-2.68.07-4.12.14s-2.75.2-4.05.35c-1.3.14-2.4.28-3.44.5-1.03.2-1.72.27-2.2.4v58.4h-12.3V44c2.82-.7 6.53-1.47 11.2-2.24 4.68-.77 10.03-1.2 16.08-1.2 5.43 0 9.97.78 13.6 2.32 3.65 1.54 6.47 3.7 8.66 6.5 2.13 2.8 3.64 6.17 4.54 10.02.9 3.93 1.3 8.2 1.3 12.9v38.85h-12.3l.2-36.27zm-71-45.52c-2.2 0-4.06-.7-5.64-2.17-1.52-1.47-2.34-3.43-2.34-5.95 0-2.45.76-4.48 2.34-5.95 1.5-1.48 3.43-2.17 5.63-2.17 2.2 0 4.04.7 5.62 2.17 1.5 1.47 2.34 3.43 2.34 5.95 0 2.45-.76 4.48-2.34 5.95-1.58 1.47-3.43 2.17-5.63 2.17zm-33.6 61c2.88 3.5 5.56 7.06 8.1 10.64 2.55 3.57 4.74 6.93 6.46 10h-14.42c-1.86-3.07-4-6.3-6.4-9.5-2.4-3.23-4.94-6.38-7.55-9.33-2.62-2.94-5.36-5.67-8.04-8.2-2.75-2.44-5.36-4.54-7.76-6.22V111h-12.3V9.94l12.3-2.1v63.02c2.12-2.1 4.46-4.5 7-7.08 2.54-2.6 5.08-5.2 7.56-7.85 2.47-2.66 4.8-5.18 7-7.63s4.12-4.62 5.7-6.44h14.43c-2 2.24-4.2 4.62-6.6 7.28-2.4 2.66-4.8 5.32-7.42 8.05-2.54 2.74-5.16 5.4-7.7 8.14-2.6 2.72-5 5.25-7.35 7.63 2.6 2.03 5.43 4.55 8.38 7.56 2.83 3.08 5.7 6.3 8.6 9.8zm-89.64 4.48c1.8 2.24 4.12 3.92 6.94 5.1 2.8 1.2 6.25 1.83 10.3 1.83 3.23 0 6.18-.28 8.86-.9 2.6-.64 4.74-1.27 6.18-1.97l1.72 10.36c-.68.42-1.72.84-3.02 1.26-1.3.42-2.82.77-4.47 1.05-1.64.28-3.43.56-5.35.77-1.93.2-3.7.35-5.5.35-5.56 0-10.44-.9-14.56-2.66-4.2-1.74-7.7-4.26-10.58-7.4-2.88-3.16-5-7-6.4-11.36-1.43-4.4-2.12-9.24-2.12-14.56s.76-10.23 2.34-14.64c1.5-4.4 3.7-8.26 6.53-11.48 2.8-3.22 6.25-5.74 10.37-7.56 4.12-1.83 8.65-2.73 13.67-2.73 3.1 0 6.18.28 9.27.77 3.1.56 6.04 1.4 8.86 2.52l-2.75 10.5c-1.85-.9-3.98-1.6-6.4-2.1-2.4-.56-5-.77-7.68-.77-6.87 0-12.16 2.16-15.8 6.5-3.64 4.34-5.5 10.72-5.5 19.05 0 3.7.42 7.14 1.24 10.22.7 2.94 2 5.6 3.86 7.85zm-45.88 16.6c-2.4.27-4.95.48-7.7.7-2.74.2-5.5.34-8.24.34-3.85 0-7.42-.42-10.7-1.2-3.24-.76-6.06-2.02-8.46-3.77-2.4-1.76-4.2-4-5.57-6.87-1.3-2.87-1.98-6.23-1.98-10.23 0-3.78.76-7.07 2.34-9.87 1.58-2.8 3.64-4.97 6.25-6.65 2.62-1.68 5.7-2.94 9.28-3.7 3.57-.78 7.2-1.2 11.06-1.2 1.24 0 2.54.07 3.85.2 1.3.15 2.53.3 3.76.57 1.17.2 2.2.42 3.1.63.9.2 1.5.28 1.85.42v-3.43c0-2.03-.2-4.06-.68-6.03-.4-1.96-1.23-3.78-2.4-5.32-1.17-1.54-2.68-2.8-4.67-3.7-2-.92-4.54-1.4-7.7-1.4-4.05 0-7.62.27-10.64.83-3 .56-5.28 1.2-6.8 1.82l-1.44-10.22c1.58-.7 4.2-1.4 7.9-2.03 3.7-.64 7.7-1 12.02-1 4.95 0 9.07.65 12.5 1.98 3.37 1.26 6.12 3.08 8.18 5.46 2.06 2.38 3.57 5.1 4.4 8.4.9 3.22 1.3 6.8 1.3 10.7v43.22c-1.03.2-2.54.42-4.4.7-1.85.14-4.05.42-6.38.63zM129.4 80.6c-.88-.42-2.33-.84-4.25-1.12-2-.28-4.4-.5-7.2-.5-1.87 0-3.8.15-5.92.43-2.13.3-3.98.85-5.7 1.7-1.72.83-3.16 1.95-4.26 3.42-1.1 1.47-1.72 3.36-1.72 5.8 0 4.43 1.45 7.5 4.2 9.26 2.74 1.75 6.66 2.6 11.47 2.6 2.88 0 5.5-.08 7.7-.22 2.25-.14 4.1-.35 5.62-.7l.07-20.66zM57.57 68.48H12.78v42.58H0V18.84h12.78v38.44h44.78V18.84h12.78V111H57.56V68.47zm248.3 42.58H293.6V41.88h12.3v69.18z"/></g></g></svg>