<?xml version="1.0" encoding="utf-8"?>
<!-- Generator: Adobe Illustrator 21.1.0, SVG Export Plug-In . SVG Version: 6.00 Build 0)  -->
<svg version="1.1" id="Layer_1" xmlns="http://www.w3.org/2000/svg" xmlns:xlink="http://www.w3.org/1999/xlink" x="0px" y="0px"
	 viewBox="0 0 489.9 85.4" style="enable-background:new 0 0 489.9 85.4;" xml:space="preserve">
<g>
	<g>
		<path d="M0,5.5c0-3.4,1.4-4.8,4.8-4.8h18.4c3.4,0,4.8,1.4,4.8,4.8v2c0,3.4-1.4,4.8-4.8,4.8H12.8v24.2h9.7c3.4,0,4.8,1.4,4.8,4.8v2
			c0,3.4-1.4,4.8-4.8,4.8h-9.7v31.7c0,3.4-1.4,4.8-4.8,4.8H4.8c-3.4,0-4.8-1.4-4.8-4.8V5.5z"/>
		<path d="M68.5,45.1c5.3,1.4,7.4,4.7,7.4,11v23.8c0,3.4-1.4,4.8-4.8,4.8h-3.2c-3.4,0-4.8-1.4-4.8-4.8V56.4c0-3.7-1.7-5.4-5.4-5.4
			H52v28.9c0,3.4-1.4,4.8-4.8,4.8h-3.2c-3.4,0-4.8-1.4-4.8-4.8V5.5c0-3.4,1.4-4.8,4.8-4.8h16.3c10.4,0,15.6,5.2,15.6,15.6v15.8
			C75.8,39.6,73.2,43.2,68.5,45.1z M63,16.9c0-3.2-1.6-4.8-4.8-4.8H52v27.7h5.8c3.6,0,5.3-1.7,5.3-5.2V16.9z"/>
		<path d="M89.4,5.5c0-3.4,1.4-4.8,4.8-4.8h19c3.4,0,4.8,1.4,4.8,4.8v2c0,3.4-1.4,4.8-4.8,4.8h-10.9v23.8h10.3
			c3.4,0,4.8,1.4,4.8,4.8v2c0,3.4-1.4,4.8-4.8,4.8h-10.3v25.3h11.2c3.4,0,4.8,1.4,4.8,4.8v2c0,3.4-1.4,4.8-4.8,4.8H94.2
			c-3.4,0-4.8-1.4-4.8-4.8V5.5z"/>
		<path d="M131,5.5c0-3.4,1.4-4.8,4.8-4.8h19c3.4,0,4.8,1.4,4.8,4.8v2c0,3.4-1.4,4.8-4.8,4.8h-10.9v23.8h10.3c3.4,0,4.8,1.4,4.8,4.8
			v2c0,3.4-1.4,4.8-4.8,4.8h-10.3v25.3H155c3.4,0,4.8,1.4,4.8,4.8v2c0,3.4-1.4,4.8-4.8,4.8h-19.2c-3.4,0-4.8-1.4-4.8-4.8V5.5z"/>
		<path d="M172.7,5.5c0-3.4,1.4-4.8,4.8-4.8h3.2c3.4,0,4.8,1.4,4.8,4.8v67.6h9.4c3.4,0,4.8,1.4,4.8,4.8v2c0,3.4-1.4,4.8-4.8,4.8
			h-17.4c-3.4,0-4.8-1.4-4.8-4.8V5.5z"/>
		<path d="M240.4,84.7c-3.1,0-4.4-1.2-4.8-4.2l-1.1-9h-13.3l-1.2,9c-0.4,3-1.7,4.2-4.7,4.2h-2.2c-3.7,0-5.3-1.8-4.7-5.5L219,4.8
			c0.5-2.9,1.8-4.1,4.8-4.1h8.6c3,0,4.3,1.2,4.8,4.1l10.7,74.4c0.6,3.7-1,5.5-4.7,5.5H240.4z M233,60.1l-5.3-42.5l-5.3,42.5H233z"/>
		<path d="M271.4,43v37c0,3.4-1.4,4.8-4.8,4.8h-1.9c-3.4,0-4.8-1.4-4.8-4.8V5.5c0-3.4,1.4-4.8,4.8-4.8h6.4c2.8,0,4.1,1.1,4.7,3.7
			l11.2,48.1l-0.1-14v-33c0-3.4,1.4-4.8,4.8-4.8h1.9c3.4,0,4.8,1.4,4.8,4.8v74.4c0,3.4-1.4,4.8-4.8,4.8h-5.3c-2.8,0-4.1-1.1-4.7-3.7
			l-12.2-52.9L271.4,43z"/>
		<path d="M336.7,55.1c0-3.4,1.4-4.8,4.8-4.8h3c3.4,0,4.8,1.4,4.8,4.8v14.8c0,10.4-5.2,15.6-15.6,15.6h-6.4
			c-10.4,0-15.6-5.2-15.6-15.6V15.6c0-10.4,5.2-15.6,15.6-15.6h6.2c10.4,0,15.5,5,15.5,15.5v12.4c0,3.4-1.4,4.8-4.8,4.8h-3
			c-3.4,0-4.8-1.4-4.8-4.8V16.2c0-3.4-1.6-4.9-4.8-4.9h-2.2c-3.4,0-4.9,1.6-4.9,4.9v53c0,3.4,1.6,4.9,4.9,4.9h2.4
			c3.2,0,4.8-1.6,4.8-4.9V55.1z"/>
		<path d="M362.5,5.5c0-3.4,1.4-4.8,4.8-4.8h19c3.4,0,4.8,1.4,4.8,4.8v2c0,3.4-1.4,4.8-4.8,4.8h-10.9v23.8h10.3
			c3.4,0,4.8,1.4,4.8,4.8v2c0,3.4-1.4,4.8-4.8,4.8h-10.3v25.3h11.2c3.4,0,4.8,1.4,4.8,4.8v2c0,3.4-1.4,4.8-4.8,4.8h-19.2
			c-3.4,0-4.8-1.4-4.8-4.8V5.5z"/>
	</g>
	<g>
		<path d="M437.8,62.7c0,1.8-0.8,2.6-2.6,2.6h-1.7c-1.8,0-2.6-0.8-2.6-2.6V26.2h-3.6c-1.8,0-2.6-0.8-2.6-2.6v-1.1
			c0-1.8,0.8-2.6,2.6-2.6h14.2c1.8,0,2.6,0.8,2.6,2.6v1.1c0,1.8-0.8,2.6-2.6,2.6h-3.6V62.7z"/>
		<path d="M457.3,65.4c-1.6,0-2.3-0.6-2.6-2.2l-5.9-40.2c-0.3-2,0.5-3,2.5-3h1.7c1.6,0,2.3,0.6,2.5,2.3l3.8,31.4l4-31.4
			c0.2-1.6,0.9-2.3,2.5-2.3h1.4c2,0,2.9,1,2.5,3l-6,40.2c-0.2,1.6-1,2.2-2.5,2.2H457.3z"/>
	</g>
	<path d="M481.4,6c1.4,0,2.5,1.1,2.5,2.5v68.3c0,1.4-1.1,2.5-2.5,2.5h-68.3c-1.4,0-2.5-1.1-2.5-2.5V8.5c0-1.4,1.1-2.5,2.5-2.5H481.4
		 M481.4,0h-68.3c-4.7,0-8.5,3.8-8.5,8.5v68.3c0,4.7,3.8,8.5,8.5,8.5h68.3c4.7,0,8.5-3.8,8.5-8.5V8.5C489.9,3.8,486.1,0,481.4,0
		L481.4,0z"/>
</g>
</svg>
