<svg xmlns="http://www.w3.org/2000/svg" width="32" height="32" version="1"><path fill="#55ACEE" d="M32 6.08c-1.18.52-2.45.87-3.78 1.03 1.36-.8 2.4-2.1 2.9-3.62-1.28.75-2.68 1.3-4.18 1.6C25.74 3.8 24.04 3 22.14 3c-3.62 0-6.55 2.94-6.55 6.56 0 .52.04 1.02.16 1.5-5.46-.28-10.3-2.9-13.53-6.86-.57.97-.9 2.1-.9 3.3 0 2.28 1.17 4.3 2.93 5.46-1.08-.03-2.1-.32-2.97-.82 0 .03 0 .06 0 .1 0 3.17 2.25 5.82 5.25 6.42-.55.15-1.13.23-1.73.23-.42 0-.83-.05-1.23-.12.82 2.6 3.25 4.5 6.12 4.55-2.25 1.76-5.08 2.82-8.15 2.82-.53 0-1.06-.04-1.57-.1C2.9 27.9 6.36 29 10.06 29c12.07 0 18.68-10 18.68-18.68 0-.28 0-.56-.02-.85C30 8.55 31.12 7.4 32 6.07z"/></svg>